<svg xmlns="http://www.w3.org/2000/svg" xmlns:xlink="http://www.w3.org/1999/xlink" width="32" height="32">    
  <defs>
    <symbol id="lock">
   <path  d="M18.5 14h-0.5v-6c0-3.308-2.692-6-6-6h-4c-3.308 0-6 2.692-6 6v6h-0.5c-0.825 0-1.5 0.675-1.5 1.5v15c0 0.825 0.675 1.5 1.5 1.5h17c0.825 0 1.5-0.675 1.5-1.5v-15c0-0.825-0.675-1.5-1.5-1.5zM6 8c0-1.103 0.897-2 2-2h4c1.103 0 2 0.897 2 2v6h-8v-6z"></path>
</symbol>

  </defs>
  
    <view id="notice" viewBox="0 32 32 32" />
    <view id="info" viewBox="0 64 32 32" />
    <view id="alert" viewBox="0 96 32 32" />
    <view id="white" viewBox="0 128 32 32" />
    <view id="gray" viewBox="0 160 32 32" />
    <view id="cool" viewBox="0 192 32 32" />

    
    <use xlink:href="#lock" x="0" y="0"   fill="black" />
    <use xlink:href="#lock" x="0" y="32"  fill="rgba(163, 140, 8,.6)" />
    <use xlink:href="#lock" x="0" y="64"  fill="rgba(22, 160, 133,.6)" />
    <use xlink:href="#lock" x="0" y="96"  fill="rgba(231, 76, 60,.6)" />
    <use xlink:href="#lock" x="0" y="128"  fill="white"  />
    <use xlink:href="#lock" x="0" y="160" fill="gray" />
    <use xlink:href="#lock" x="0" y="192" fill="rgba(52, 152, 219,.6)"  />  
 
</svg>