<?xml version="1.0" encoding="UTF-8" standalone="no"?>
<svg
   xmlns:dc="http://purl.org/dc/elements/1.1/"
   xmlns:cc="http://creativecommons.org/ns#"
   xmlns:rdf="http://www.w3.org/1999/02/22-rdf-syntax-ns#"
   xmlns:svg="http://www.w3.org/2000/svg"
   xmlns="http://www.w3.org/2000/svg"
   xmlns:xlink="http://www.w3.org/1999/xlink"
   xmlns:sodipodi="http://sodipodi.sourceforge.net/DTD/sodipodi-0.dtd"
   xmlns:inkscape="http://www.inkscape.org/namespaces/inkscape"
   width="32"
   height="32"
   version="1.1"
   id="svg4504"
   sodipodi:docname="not-found.svg"
   inkscape:version="0.92.1 r15371">
  <metadata
     id="metadata4508">
    <rdf:RDF>
      <cc:Work
         rdf:about="">
        <dc:format>image/svg+xml</dc:format>
        <dc:type
           rdf:resource="http://purl.org/dc/dcmitype/StillImage" />
        <dc:title></dc:title>
      </cc:Work>
    </rdf:RDF>
  </metadata>
  <sodipodi:namedview
     pagecolor="#ffffff"
     bordercolor="#666666"
     borderopacity="1"
     objecttolerance="10"
     gridtolerance="10"
     guidetolerance="10"
     inkscape:pageopacity="0"
     inkscape:pageshadow="2"
     inkscape:window-width="1600"
     inkscape:window-height="837"
     id="namedview4506"
     showgrid="false"
     inkscape:zoom="20.875"
     inkscape:cx="13.700599"
     inkscape:cy="16"
     inkscape:window-x="1592"
     inkscape:window-y="-8"
     inkscape:window-maximized="1"
     inkscape:current-layer="svg4504" />
  <defs
     id="defs4488">
    <symbol
       id="search"
       viewBox="0 0 32 32">
      <path
         d="M30.055 26.626l-7.09-6.022c-.733-.658-1.516-.961-2.15-.932a11.158 11.158 0 0 0 2.685-7.274c0-6.19-5.026-11.21-11.224-11.21S1.053 6.208 1.053 12.398c0 6.19 5.025 11.21 11.223 11.21 2.78 0 5.323-1.01 7.283-2.682-.029.633.274 1.416.934 2.148l6.03 7.08c1.032 1.146 2.718 1.243 3.747.215 1.03-1.027.933-2.711-.215-3.743zm-17.778-6.754c-4.132 0-7.482-3.346-7.482-7.473s3.35-7.473 7.482-7.473 7.483 3.346 7.483 7.473-3.35 7.473-7.483 7.473z"
         stroke="currentColor"
         id="path4485" />
    </symbol>
  </defs>
  <view
     id="notice"
     viewBox="0 32 32 32" />
  <view
     id="info"
     viewBox="0 64 32 32" />
  <view
     id="alert"
     viewBox="0 96 32 32" />
  <view
     id="white"
     viewBox="0 128 32 32" />
  <view
     id="gray"
     viewBox="0 160 32 32" />
  <view
     id="cool"
     viewBox="0 192 32 32" />
  <use
     xlink:href="#search"
     x="0"
     y="32"
     fill="rgba(163, 140, 8,.6)"
     id="use4492" />
  <use
     xlink:href="#search"
     x="0"
     y="64"
     fill="rgba(22, 160, 133,.6)"
     id="use4494" />
  <use
     xlink:href="#search"
     x="0"
     y="96"
     fill="rgba(231, 76, 60,.6)"
     id="use4496" />
  <use
     xlink:href="#search"
     x="0"
     y="128"
     fill="white"
     id="use4498" />
  <use
     xlink:href="#search"
     x="0"
     y="160"
     fill="gray"
     id="use4500" />
  <use
     xlink:href="#search"
     x="0"
     y="192"
     fill="rgba(52, 152, 219,.6)"
     id="use4502" />
  <g
     id="g4494">
    <use
       id="use4490"
       fill="black"
       y="0"
       x="0"
       xlink:href="#search" />
    <path
       d="m 11.903637,-1.3255841 h 11.217799 c 0.03753,0 0.06775,0.030215 0.06775,0.067747 V 1.528825 c 0,0.037532 -0.03021,0.067747 -0.06775,0.067747 H 11.903637 c -0.03753,0 -0.06775,-0.030215 -0.06775,-0.067747 v -2.7866621 c 0,-0.037532 0.03022,-0.067747 0.06775,-0.067747 z m 4.147821,7.1377246 V -5.541153 h 2.922156 c 0,0 0.237114,11.3194201 0,11.3532935 z"
       style="opacity:1;fill:#ff0000;fill-opacity:1;fill-rule:nonzero;stroke:none;stroke-width:3;stroke-miterlimit:4;stroke-dasharray:none;stroke-dashoffset:0;stroke-opacity:1"
       transform="rotate(45)"
       id="rect4512" />
  </g>
</svg>
