<svg xmlns="http://www.w3.org/2000/svg" xmlns:xlink="http://www.w3.org/1999/xlink" width="32" height="32">    
  <defs>
		<symbol id="search" viewBox="0 0 32 32" >
			<path d="M30.055 26.626l-7.09-6.022c-.733-.658-1.516-.961-2.15-.932a11.158 11.158 0 0 0 2.685-7.274c0-6.19-5.026-11.21-11.224-11.21S1.053 6.208 1.053 12.398c0 6.19 5.025 11.21 11.223 11.21 2.78 0 5.323-1.01 7.283-2.682-.029.633.274 1.416.934 2.148l6.03 7.08c1.032 1.146 2.718 1.243 3.747.215 1.03-1.027.933-2.711-.215-3.743zm-17.778-6.754c-4.132 0-7.482-3.346-7.482-7.473s3.35-7.473 7.482-7.473 7.483 3.346 7.483 7.473-3.35 7.473-7.483 7.473z" stroke="currentColor"/>
		</symbol>
  </defs>
  
    <view id="notice" viewBox="0 32 32 32" />
    <view id="info" viewBox="0 64 32 32" />
    <view id="alert" viewBox="0 96 32 32" />
    <view id="white" viewBox="0 128 32 32" />
    <view id="gray" viewBox="0 160 32 32" />
    <view id="cool" viewBox="0 192 32 32" />

    
    <use xlink:href="#search" x="0" y="0"   fill="black" />
    <use xlink:href="#search" x="0" y="32"  fill="rgba(163, 140, 8,.6)" />
    <use xlink:href="#search" x="0" y="64"  fill="rgba(22, 160, 133,.6)" />
    <use xlink:href="#search" x="0" y="96"  fill="rgba(231, 76, 60,.6)" />
    <use xlink:href="#search" x="0" y="128"  fill="white"  />
    <use xlink:href="#search" x="0" y="160" fill="gray" />
    <use xlink:href="#search" x="0" y="192" fill="rgba(52, 152, 219,.6)"  />  
 
</svg>